<?xml version="1.0" encoding="UTF-8"?>
<svg xmlns="http://www.w3.org/2000/svg"
     viewBox="0 0 827 612"
     width="827" height="612">
<title>barcosenmallorca</title>
<g transform="translate(0,612) scale(0.1,-0.1)" fill="#2d6f6f" stroke="none">
<path d="M1137 3872 l-28 -3 3 -559 c2 -307 5 -560 8 -562 3 -3 26 -3 53 0 l47 4 0 51 c0 47 1 49 18 35 105 -93 285 -52 343 77 37 80 17 216 -39 278 -59 66 -190 87 -274 44 l-46 -23 -7 145 c-3 80 -11 207 -16 281 -5 74 -9 151 -9 171 0 45 -17 66 -53 61z m280 -719 c107 -50 95 -233 -17 -263 -52 -14 -112 2 -139 36 -64 81 -43 192 43 230 42 18 71 17 113 -3z"/>
<path d="M1215 3733 c20 -52 46 -231 48 -331 l2 -113 40 8 c96 19 191 -3 253 -60 30 -28 30 -8 -3 79 -48 128 -141 262 -256 368 -72 66 -97 81 -84 49z"/>
<path d="M1037 3352 c-50 -208 -129 -396 -227 -546 -70 -108 -70 -108 -24 -102 22 3 80 10 129 16 50 6 105 13 123 16 l32 5 0 339 c0 186 -3 341 -7 343 -5 3 -16 -29 -26 -71z"/>
<path d="M5687 3374 c-4 -4 -7 -133 -7 -286 l0 -278 60 0 60 0 -2 283 -3 282 -50 3 c-28 2 -54 0 -58 -4z"/>
<path d="M5870 3095 l0 -285 60 0 60 0 -2 283 -3 282 -57 3 -58 3 0 -286z"/>
<path d="M1740 3208 c-135 -70 -146 -291 -18 -375 56 -38 147 -40 196 -5 32 23 32 23 32 3 0 -19 6 -21 55 -21 l55 0 -2 203 -3 202 -55 0 c-45 0 -55 -3 -54 -17 1 -15 -2 -14 -27 4 -43 32 -123 35 -179 6z m144 -88 c57 -21 76 -135 32 -187 -20 -23 -32 -28 -71 -28 -65 0 -95 34 -95 108 0 91 57 137 134 107z"/>
<path d="M2295 3214 c-16 -8 -34 -23 -39 -32 -9 -15 -11 -14 -16 8 -5 22 -12 25 -58 28 l-52 3 0 -206 0 -206 55 3 56 3 3 124 c3 121 4 125 30 148 19 16 40 23 67 23 l39 0 0 50 c0 28 1 53 3 58 4 14 -59 12 -88 -4z"/>
<path d="M2526 3215 c-136 -48 -179 -224 -83 -341 75 -90 194 -98 300 -21 35 27 34 36 -8 70 l-36 28 -31 -26 c-27 -22 -39 -26 -71 -22 -50 7 -77 34 -86 83 -9 49 3 95 30 120 28 25 99 26 126 2 27 -25 45 -22 78 12 34 36 28 47 -48 85 -57 28 -111 32 -171 10z"/>
<path d="M2929 3217 c-95 -36 -142 -102 -142 -202 0 -42 6 -73 21 -102 71 -138 277 -151 367 -24 27 39 30 50 30 125 0 73 -3 87 -28 124 -48 73 -165 110 -248 79z m145 -128 c25 -28 28 -37 24 -81 -4 -36 -12 -57 -32 -76 -63 -63 -166 -13 -166 82 0 104 105 150 174 75z"/>
<path d="M3334 3211 c-53 -24 -74 -55 -74 -108 0 -59 36 -97 120 -127 73 -27 91 -45 70 -71 -18 -22 -83 -13 -124 16 l-28 21 -32 -31 c-24 -25 -29 -35 -20 -48 17 -27 83 -56 139 -61 67 -5 115 11 154 50 26 27 31 40 31 81 0 43 -4 54 -33 80 -18 18 -60 40 -97 51 -46 15 -66 27 -68 40 -8 39 43 47 103 16 21 -11 39 -19 40 -17 1 1 11 15 23 31 12 16 22 32 22 36 0 16 -85 52 -133 56 -38 4 -63 0 -93 -15z"/>
<path d="M3744 3217 c-88 -35 -134 -105 -134 -202 0 -92 38 -156 114 -191 87 -40 197 -25 250 35 20 22 20 22 -10 52 l-31 30 -37 -22 c-52 -31 -110 -22 -151 23 l-29 33 144 5 145 5 3 38 c5 56 -37 139 -86 172 -47 31 -131 41 -178 22z m132 -119 l27 -33 -46 -3 c-26 -2 -68 -2 -94 0 l-46 3 27 33 c22 26 35 32 66 32 31 0 44 -6 66 -32z"/>
<path d="M4230 3219 c-13 -5 -32 -17 -41 -25 -15 -13 -17 -13 -22 6 -4 17 -13 20 -56 20 l-51 0 0 -205 0 -206 56 3 56 3 -1 120 c-1 104 1 124 19 153 11 17 26 32 34 32 8 0 21 3 29 6 8 3 27 -5 41 -18 29 -24 32 -47 35 -250 l1 -48 55 0 55 0 0 147 c0 161 -14 214 -66 248 -31 20 -111 28 -144 14z"/>
<path d="M4680 3219 c-13 -6 -33 -17 -42 -26 -17 -15 -18 -15 -18 6 0 20 -4 22 -52 19 l-53 -3 -3 -203 -2 -203 57 3 58 3 3 135 c3 150 11 170 67 170 59 0 70 -24 73 -176 l4 -134 54 0 54 0 0 129 c0 115 2 131 21 155 15 19 30 26 53 26 59 0 66 -19 66 -173 l0 -137 61 0 61 0 -4 153 c-5 181 -16 215 -82 247 -23 11 -55 20 -69 20 -33 0 -94 -24 -119 -47 -17 -15 -20 -15 -41 5 -42 39 -97 51 -147 31z"/>
<path d="M5305 3212 c-78 -37 -115 -103 -115 -202 0 -94 42 -161 122 -195 50 -20 96 -19 143 5 47 24 45 24 45 5 0 -12 13 -15 55 -15 l55 0 0 205 0 205 -51 0 c-42 0 -52 -3 -56 -20 -5 -19 -6 -19 -33 2 -40 29 -114 34 -165 10z m165 -117 c21 -21 25 -35 25 -81 0 -50 -3 -58 -33 -85 -20 -18 -43 -29 -62 -29 -19 0 -42 11 -62 29 -30 26 -33 35 -33 84 0 58 18 90 60 108 31 13 77 1 105 -26z"/>
<path d="M6176 3215 c-111 -39 -168 -179 -117 -291 75 -166 315 -165 392 1 81 174 -91 356 -275 290z m117 -96 c41 -21 57 -51 57 -107 0 -46 -4 -58 -29 -83 -33 -33 -67 -37 -111 -14 -38 20 -50 43 -50 100 0 56 12 80 48 99 33 18 56 20 85 5z"/>
<path d="M6678 3206 c-34 -23 -36 -23 -41 -5 -4 16 -14 19 -61 19 l-56 0 0 -205 0 -205 60 0 60 0 0 124 c0 149 8 166 86 175 l49 6 0 55 c0 54 -1 55 -30 58 -20 2 -44 -6 -67 -22z"/>
<path d="M6903 3206 c-73 -35 -106 -87 -111 -177 -3 -55 0 -77 17 -113 62 -127 243 -156 338 -54 l23 24 -34 33 -33 32 -39 -26 c-47 -32 -95 -29 -133 10 -22 21 -26 35 -26 80 0 46 4 59 28 82 34 35 92 38 135 6 l29 -21 31 25 c40 31 40 44 2 77 -61 51 -147 59 -227 22z"/>
<path d="M7301 3208 c-25 -13 -58 -40 -75 -61 -26 -32 -31 -49 -34 -107 -2 -37 1 -84 8 -104 37 -114 174 -172 264 -111 34 23 36 23 36 5 0 -18 7 -20 55 -20 l55 0 0 205 0 205 -55 0 c-49 0 -55 -2 -55 -20 0 -20 0 -20 -29 1 -45 33 -116 36 -170 7z m172 -118 c21 -24 27 -40 27 -76 0 -39 -5 -51 -34 -80 -23 -23 -43 -34 -63 -34 -61 0 -109 64 -100 132 13 94 107 126 170 58z"/>
<path d="M1495 2749 c-77 -10 -257 -35 -400 -55 -283 -40 -411 -47 -463 -25 -18 7 -35 11 -38 8 -13 -13 30 -70 64 -85 54 -23 208 -20 382 8 165 27 352 33 388 12 33 -19 27 -49 -18 -95 -22 -22 -39 -41 -37 -43 9 -10 172 80 211 116 42 39 108 128 122 164 8 21 -25 20 -211 -5z"/>
</g>
</svg>